<?xml version="1.0" encoding="iso-8859-1"?>
<!-- Uploaded to: SVG Repo, www.svgrepo.com, Generator: SVG Repo Mixer Tools -->
<!DOCTYPE svg PUBLIC "-//W3C//DTD SVG 1.1//EN" "http://www.w3.org/Graphics/SVG/1.1/DTD/svg11.dtd">
<svg fill="#000000" version="1.1" id="Capa_1" xmlns="http://www.w3.org/2000/svg" xmlns:xlink="http://www.w3.org/1999/xlink" 
	 width="800px" height="800px" viewBox="0 0 455.902 455.902"
	 xml:space="preserve">
<g>
	<g>
		<path d="M248.212,287.058c-7.554,7.646-18.02-5.382-10.514-12.964c19.522-19.74,48.011-31.134,77.979-36.291
			c-1.442-5.695-2.897-11.331-4.384-16.848c-29.747,4.034-58.457,14.419-77.676,33.851c-7.56,7.639-18.023-5.39-10.52-12.972
			c20.754-20.981,51.656-32.517,83.679-37.177c-1.639-5.715-3.29-11.259-4.945-16.605c-31.546,3.502-62.491,13.944-82.815,34.494
			c-7.56,7.643-18.023-5.386-10.521-12.968c21.698-21.933,54.477-33.59,88.047-37.814c-1.983-5.819-3.971-11.273-5.935-16.306
			c-32.704,3.109-65.146,13.543-86.196,34.816c-7.558,7.64-18.023-5.386-10.518-12.968c22.059-22.305,55.561-33.953,89.724-37.99
			c-2.561-5.516-5.153-10.894-7.774-16.106c-32.652,3.132-65.022,13.557-86.039,34.801c-7.56,7.636-18.025-5.386-10.52-12.972
			c21.716-21.957,54.519-33.604,88.127-37.822c-3.054-5.534-6.159-10.848-9.285-15.972c-31.59,3.485-62.586,13.934-82.923,34.498
			c-7.56,7.64-18.023-5.382-10.52-12.968c20.684-20.913,51.441-32.436,83.361-37.13C214.407,26.459,177.038,0,139.435,0
			c-11.516,0-22.991,2.541-34.091,7.565c-29.214,13.229-46.683,39.62-50.526,76.328c-4.14,39.519,7.558,91.091,33.835,149.117
			c27.2,60.119,125.473,189.499,164.897,222.893l92.187-41.713c0.229-30.212-11.124-97.484-26.056-160.041
			C292.186,258.726,266.089,268.988,248.212,287.058z"/>
		<path d="M379.615,252.346l-4.5-17.148l-3.759-14.344l-4.553-17.366l-3.655-13.96l-4.608-17.552l-3.626-13.834l-4.577-17.456
			l-4.424-16.861l-3.663-13.992l-17.732-67.613c-1.651-6.29-8.083-10.021-14.375-8.401c-6.296,1.647-10.059,8.087-8.403,14.381
			l6.885,26.263l4.552,17.364l3.76,14.334l4.508,17.17l3.84,14.639l4.492,17.116l3.927,14.952l4.429,16.921l3.987,15.22
			l4.416,16.825l4.071,15.527l4.385,16.715l23.743,90.524c1.387,5.297,6.155,8.784,11.386,8.784c0.985,0,1.991-0.12,2.989-0.385
			c6.292-1.64,10.059-8.079,8.399-14.379L379.615,252.346z"/>
	</g>
</g>
</svg>